<svg width="224" height="65" viewBox="0 0 224 65" fill="none" xmlns="http://www.w3.org/2000/svg">
<path d="M42.4594 12.8905C41.4065 8.53537 37.9541 4.98733 33.6603 3.86436C30.5819 3.05921 27.6354 4.35554 25.1356 6.20757C24.8248 6.43775 24.47 6.5668 24.1315 6.73534L26.8398 8.48914C27.5494 8.94854 27.7559 9.902 27.2988 10.6185C26.8723 11.2879 25.9341 11.5682 25.1844 11.0808L15.5724 4.85731C13.5928 3.81235 11.4239 3.27783 9.18322 3.86436C4.88934 4.98829 1.43702 8.53537 0.384107 12.8905C-0.584646 16.8989 0.343941 20.6733 2.4402 23.5259C4.67416 26.5664 5.56545 30.1385 5.91069 33.8648C6.33147 38.4067 6.89857 42.9333 7.91322 47.3789L8.65915 50.6486C8.96422 51.9844 10.1405 52.9311 11.4966 52.9311C12.8325 52.9311 13.9973 52.0114 14.3215 50.7006L17.618 37.3695C18.0541 35.6051 19.6224 34.3685 21.4203 34.3685C23.2182 34.3685 24.7866 35.606 25.2226 37.3695L28.5191 50.7006C28.8433 52.0114 30.0081 52.9311 31.344 52.9311C32.7001 52.9311 33.8764 51.9844 34.1815 50.6486L34.9274 47.3789C35.942 42.9342 36.5082 38.4067 36.9299 33.8648C37.2752 30.1376 38.1664 26.5664 40.4004 23.5259C42.4995 20.6742 43.4281 16.8998 42.4594 12.8905Z" fill="#2259B5"/>
<path d="M70.7163 49C81.7959 49 88.3655 42.1463 88.3655 30.7827C88.3655 19.4545 81.7959 12.6364 70.9649 12.6364H58.3939V49H70.7163ZM64.9813 43.3004V18.3359H70.5921C77.9784 18.3359 81.8314 22.4553 81.8314 30.7827C81.8314 39.1456 77.9784 43.3004 70.3967 43.3004H64.9813ZM106.414 49.5327C112.771 49.5327 117.139 46.4254 118.275 41.6847L112.274 41.0099C111.403 43.3182 109.273 44.5256 106.503 44.5256C102.348 44.5256 99.596 41.7912 99.5427 37.1214H118.541V35.1506C118.541 25.5803 112.788 21.3722 106.077 21.3722C98.2643 21.3722 93.1684 27.1072 93.1684 35.5234C93.1684 44.0817 98.1933 49.5327 106.414 49.5327ZM99.5604 32.7891C99.7558 29.3089 102.33 26.3793 106.166 26.3793C109.859 26.3793 112.345 29.0781 112.38 32.7891H99.5604ZM130.407 33.0199C130.407 29.0781 132.786 26.8054 136.177 26.8054C139.497 26.8054 141.486 28.9893 141.486 32.6293V49H147.914V31.6349C147.931 25.1009 144.203 21.3722 138.574 21.3722C134.49 21.3722 131.685 23.3253 130.442 26.3615H130.122V21.7273H123.979V49H130.407V33.0199ZM168.066 21.7273H162.686V15.1932H156.259V21.7273H152.388V26.6989H156.259V41.8622C156.223 46.9936 159.952 49.5149 164.782 49.3729C166.61 49.3196 167.871 48.9645 168.563 48.7337L167.48 43.7088C167.125 43.7976 166.397 43.9574 165.598 43.9574C163.982 43.9574 162.686 43.3892 162.686 40.7969V26.6989H168.066V21.7273ZM181.29 49.5504C185.569 49.5504 188.126 47.544 189.298 45.2536H189.511V49H195.69V30.7472C195.69 23.5384 189.813 21.3722 184.61 21.3722C178.875 21.3722 174.472 23.929 173.051 28.9006L179.053 29.7528C179.692 27.8885 181.503 26.2905 184.646 26.2905C187.629 26.2905 189.262 27.8175 189.262 30.4986V30.6051C189.262 32.4517 187.327 32.5405 182.515 33.0554C177.224 33.6236 172.163 35.2038 172.163 41.3473C172.163 46.7095 176.087 49.5504 181.29 49.5504ZM182.959 44.8274C180.278 44.8274 178.36 43.6023 178.36 41.2408C178.36 38.7727 180.509 37.7429 183.385 37.3345C185.072 37.1037 188.445 36.6776 189.28 36.0028V39.2166C189.28 42.2528 186.83 44.8274 182.959 44.8274ZM208.58 12.6364H202.153V49H208.58V12.6364Z" fill="#1C2440"/>
</svg>
